<svg width="1731" height="155" viewBox="0 0 1731 155" fill="none" xmlns="http://www.w3.org/2000/svg">
<path d="M111.357 9.10259L111.21 10.2314C110.536 15.4222 110.197 21.9733 110.197 27.1826C110.197 28.9547 110.236 30.8056 110.277 32.7472L110.282 32.9959C110.318 34.7169 110.354 36.5061 110.364 38.3585H130.645C136.212 38.3585 144.157 37.6859 148.185 37.0191L149.348 36.8264V38.0056V60.4972V61.5287L148.317 61.4967C146.512 61.4407 144.606 61.3666 142.697 61.2925C138.807 61.1413 134.907 60.9899 131.836 60.9899H110.899C111.043 67.9431 111.201 75.1673 111.36 82.464C111.76 100.814 112.169 119.623 112.41 135.736M111.357 9.10259L111.41 135.751M111.357 9.10259H110.218H86.0468H84.88L85.0586 10.2556C85.7325 14.6073 86.2407 19.9814 86.7506 27.2405L111.357 9.10259ZM112.41 135.736L111.41 135.751M112.41 135.736C112.41 135.736 112.41 135.735 112.41 135.735L111.41 135.751M112.41 135.736C112.498 141.345 110.906 145.923 107.47 149.085C104.05 152.232 98.9591 153.831 92.345 153.831C81.9386 153.831 72.383 153.492 62.6569 152.814L61.8027 152.754L61.7301 151.901L59.8576 129.917L59.7473 128.621L61.0279 128.847C68.6271 130.189 77.7607 130.861 83.4935 130.861C85.457 130.861 86.6003 130.358 87.2963 129.513C88.0307 128.622 88.4512 127.135 88.4512 124.759C88.4512 114.036 88.4512 98.3247 88.1629 81.9172M111.41 135.751C111.58 146.574 105.282 152.831 92.345 152.831C81.9615 152.831 72.4291 152.493 62.7265 151.816L60.9418 130.863C60.8544 130.847 60.7671 130.832 60.6801 130.817L60.854 129.832L61.8504 129.747L61.8725 130.006C69.3154 131.243 77.9603 131.861 83.4935 131.861C87.749 131.861 89.4512 129.663 89.4512 124.759C89.4512 113.773 89.4512 97.542 89.141 80.6886C88.8202 81.0965 88.4942 81.5061 88.1629 81.9172M88.1629 81.9172C72.7641 101.027 46.1326 123.407 20.1274 137.142L19.4346 137.508L18.9136 136.923L3.25316 119.336L2.36148 118.334L3.57559 117.765C35.7362 102.691 63.0487 79.8178 76.9418 60.9899M88.1629 81.9172C88.1537 81.3954 88.1443 80.873 88.1345 80.3499C72.9544 99.546 45.9813 122.356 19.6604 136.258L4.69367 119.45C4.60395 119.492 4.5142 119.534 4.42441 119.576L4 118.671L4.74684 118.006L4.9429 118.226C37.1546 102.932 64.4447 79.9029 78.1811 60.9899H76.9418M148.348 60.4972C148.018 60.4869 147.685 60.4761 147.348 60.4647V60.4972H148.348ZM148.348 60.4972L148.379 59.4977C148.369 59.4973 148.358 59.497 148.348 59.4967V60.4972ZM148.348 38.0056L148.511 38.9922C148.457 39.0011 148.403 39.01 148.348 39.0189V38.0056ZM148.348 38.0056H147.348V38.1601C147.702 38.1088 148.036 38.0572 148.348 38.0056ZM110.218 10.1026C110.176 10.4308 110.134 10.7644 110.094 11.1026H110.218V10.1026ZM110.218 10.1026L109.227 9.97379C109.221 10.0166 109.215 10.0596 109.21 10.1026H110.218ZM86.0468 10.1026L87.035 9.94956C87.0429 10.0004 87.0508 10.0514 87.0586 10.1026H86.0468ZM86.0468 10.1026V11.1026H86.1962C86.1473 10.7634 86.0975 10.4302 86.0468 10.1026ZM76.9418 60.9899C77.1887 60.6552 77.4314 60.3219 77.6698 59.9899M76.9418 60.9899L77.6698 59.9899M77.6698 59.9899H32.427C26.6378 59.9899 19.785 60.2917 14.0217 60.6103V60.6663H13.0217L12.9651 59.6679C12.9839 59.6668 13.0028 59.6658 13.0217 59.6647V39.1839C12.9762 39.1778 12.931 39.1716 12.886 39.1655L13.0217 38.1747M77.6698 59.9899L13.0217 38.1747M13.0217 38.1747H14.0217V38.3042C13.6758 38.2618 13.342 38.2186 13.0217 38.1747ZM88.2207 38.3585C88.2337 38.6899 88.2467 39.0232 88.2597 39.3585H87.2589C87.2459 39.0232 87.233 38.6899 87.22 38.3585H88.2207ZM110.367 39.3585H109.367H110.367ZM179.751 66.265L178.669 66.1753V67.2616V93.8117V94.8955L179.749 94.8085C186.009 94.3042 197.384 93.9662 207.074 93.9662H298.483C303.532 93.9662 309.321 94.304 313.742 94.562C315.561 94.6682 317.149 94.7608 318.358 94.8109L319.399 94.854V93.8117V67.2616V66.1822L318.323 66.2645C317.797 66.3047 317.229 66.3495 316.623 66.3974C312.111 66.7537 305.495 67.2762 298.483 67.2762H207.074C198.246 67.2762 185.848 66.7697 179.751 66.265ZM384.988 152.851L384.815 154H385.977H412.532H413.635L413.527 152.902C412.847 145.973 412 134.177 412 129.325V82.8653C430.252 89.1299 454.937 98.6702 471.988 107.551L472.955 108.055L473.373 107.048L483.076 83.7108L483.438 82.8398L482.589 82.4275C467.027 74.8652 434.807 63.0116 412 56.364V32.0868C412 25.2201 412.843 17.836 413.525 11.908L413.653 10.7937H412.532H385.977H384.756L384.997 11.991C386.17 17.8187 386.679 26.2007 386.679 32.0868V129.325C386.679 136.045 386.001 146.142 384.988 152.851ZM638.051 10.0475L637.593 9.37415L636.841 9.6863L623.393 15.2669L622.232 15.7491L622.963 16.7723C627.151 22.6274 631.784 31.6367 635.297 38.4672C635.595 39.0466 635.884 39.6102 636.165 40.155L636.594 40.987L637.453 40.6138L651.07 34.695L652.051 34.2687L651.56 33.3187C648.319 27.048 642.34 16.3533 638.051 10.0475ZM658.134 2.43279L657.675 1.76608L656.927 2.07637L643.48 7.65698L642.302 8.14547L643.057 9.1726C647.604 15.3636 653.192 25.2834 656.583 32.1893L656.999 33.0373L657.87 32.6698L671.487 26.9201L672.484 26.4995L671.986 25.5392C668.905 19.5859 662.585 8.89586 658.134 2.43279ZM536.207 92.5912L536.202 92.6037C530.448 107.4 520.451 125.58 509.788 139.367L508.991 140.398L510.193 140.901L534.024 150.878L534.762 151.187L535.225 150.536C544.303 137.773 554.385 118.416 560.54 101.941C566.521 86.1511 572.661 62.7627 575.052 50.8862L575.054 50.8775L575.056 50.8689C575.732 47.1746 577.596 38.9301 579.112 34.0761L579.442 33.0195L578.357 32.7981L553.505 27.7248L552.415 27.5023L552.31 28.6099C550.278 49.9752 543.837 73.7251 536.207 92.5912ZM620.284 89.7572L620.286 89.7642C627.077 107.979 633.194 129.245 637.953 149.341L638.203 150.394L639.233 150.062L664.426 141.945L665.346 141.649L665.081 140.719C660.307 123.95 651.275 96.8624 645.305 81.6096L645.304 81.6072C638.826 65.1786 627.064 39.0985 620.062 26.0338L619.668 25.2992L618.875 25.5541L596.236 32.8258L595.075 33.1986L595.667 34.264C602.784 47.0579 613.828 72.035 620.284 89.7572ZM684.979 78.8067L683.774 79.1144L684.334 80.2252L695.057 101.533L695.431 102.276L696.23 102.044C716.661 96.103 737.725 87.2784 755.039 78.3752V130.847C755.039 138.282 754.527 148.864 753.861 152.835L753.666 154H754.847H781.742H783.063L782.705 152.729C782.143 150.734 781.762 147.158 781.528 143.071C781.295 139.016 781.21 134.555 781.21 130.847V63.0661C797.621 52.2645 813.834 39.1581 826.7 26.5438L827.441 25.8175L826.688 25.1039L808.304 7.68559L807.528 6.9503L806.846 7.77365C795.856 21.0429 776.538 37.8821 759.092 48.652C740.288 60.0961 715.359 71.0508 684.979 78.8067Z" stroke="url(#paint0_linear_216_2)" stroke-width="2"/>
<path d="M1013.36 9.10259L1013.21 10.2314C1012.54 15.4222 1012.2 21.9733 1012.2 27.1826C1012.2 28.9547 1012.24 30.8056 1012.28 32.7472L1012.28 32.9959C1012.32 34.7169 1012.35 36.5061 1012.36 38.3585H1032.64C1038.21 38.3585 1046.16 37.6859 1050.18 37.0191L1051.35 36.8264V38.0056V60.4972V61.5287L1050.32 61.4967C1048.51 61.4407 1046.61 61.3666 1044.7 61.2925C1040.81 61.1413 1036.91 60.9899 1033.84 60.9899H1012.9C1013.04 67.9431 1013.2 75.1673 1013.36 82.464C1013.76 100.814 1014.17 119.623 1014.41 135.736M1013.36 9.10259L1013.41 135.751M1013.36 9.10259H1012.22H988.047H986.88L987.059 10.2556C987.732 14.6073 988.241 19.9814 988.751 27.2405L1013.36 9.10259ZM1014.41 135.736L1013.41 135.751M1014.41 135.736C1014.41 135.736 1014.41 135.735 1014.41 135.735L1013.41 135.751M1014.41 135.736C1014.5 141.345 1012.91 145.923 1009.47 149.085C1006.05 152.232 1000.96 153.831 994.345 153.831C983.939 153.831 974.383 153.492 964.657 152.814L963.803 152.754L963.73 151.901L961.858 129.917L961.747 128.621L963.028 128.847C970.627 130.189 979.761 130.861 985.493 130.861C987.457 130.861 988.6 130.358 989.296 129.513C990.031 128.622 990.451 127.135 990.451 124.759C990.451 114.036 990.451 98.3247 990.163 81.9172M1013.41 135.751C1013.58 146.574 1007.28 152.831 994.345 152.831C983.961 152.831 974.429 152.493 964.726 151.816L962.942 130.863C962.854 130.847 962.767 130.832 962.68 130.817L962.854 129.832L963.85 129.747L963.872 130.006C971.315 131.243 979.96 131.861 985.493 131.861C989.749 131.861 991.451 129.663 991.451 124.759C991.451 113.773 991.451 97.542 991.141 80.6886C990.82 81.0965 990.494 81.5061 990.163 81.9172M990.163 81.9172C974.764 101.027 948.133 123.407 922.127 137.142L921.435 137.508L920.914 136.923L905.253 119.336L904.361 118.334L905.576 117.765C937.736 102.691 965.049 79.8178 978.942 60.9899M990.163 81.9172C990.154 81.3954 990.144 80.873 990.135 80.3499C974.954 99.546 947.981 122.356 921.66 136.258L906.694 119.45C906.604 119.492 906.514 119.534 906.424 119.576L906 118.671L906.747 118.006L906.943 118.226C939.155 102.932 966.445 79.9029 980.181 60.9899H978.942M1050.35 60.4972C1050.02 60.4869 1049.68 60.4761 1049.35 60.4647V60.4972H1050.35ZM1050.35 60.4972L1050.38 59.4977C1050.37 59.4973 1050.36 59.497 1050.35 59.4967V60.4972ZM1050.35 38.0056L1050.51 38.9922C1050.46 39.0011 1050.4 39.01 1050.35 39.0189V38.0056ZM1050.35 38.0056H1049.35V38.1601C1049.7 38.1088 1050.04 38.0572 1050.35 38.0056ZM1012.22 10.1026C1012.18 10.4308 1012.13 10.7644 1012.09 11.1026H1012.22V10.1026ZM1012.22 10.1026L1011.23 9.97379C1011.22 10.0166 1011.22 10.0596 1011.21 10.1026H1012.22ZM988.047 10.1026L989.035 9.94956C989.043 10.0004 989.051 10.0514 989.059 10.1026H988.047ZM988.047 10.1026V11.1026H988.196C988.147 10.7634 988.098 10.4302 988.047 10.1026ZM978.942 60.9899C979.189 60.6552 979.431 60.3219 979.67 59.9899M978.942 60.9899L979.67 59.9899M979.67 59.9899H934.427C928.638 59.9899 921.785 60.2917 916.022 60.6103V60.6663H915.022L914.965 59.6679C914.984 59.6668 915.003 59.6658 915.022 59.6647V39.1839C914.976 39.1778 914.931 39.1716 914.886 39.1655L915.022 38.1747M979.67 59.9899L915.022 38.1747M915.022 38.1747H916.022V38.3042C915.676 38.2618 915.342 38.2186 915.022 38.1747ZM990.221 38.3585C990.234 38.6899 990.247 39.0232 990.26 39.3585H989.259C989.246 39.0232 989.233 38.6899 989.22 38.3585H990.221ZM1012.37 39.3585H1011.37H1012.37ZM1081.75 66.265L1080.67 66.1753V67.2616V93.8117V94.8955L1081.75 94.8085C1088.01 94.3042 1099.38 93.9662 1109.07 93.9662H1200.48C1205.53 93.9662 1211.32 94.304 1215.74 94.562C1217.56 94.6682 1219.15 94.7608 1220.36 94.8109L1221.4 94.854V93.8117V67.2616V66.1822L1220.32 66.2645C1219.8 66.3047 1219.23 66.3495 1218.62 66.3974C1214.11 66.7537 1207.49 67.2762 1200.48 67.2762H1109.07C1100.25 67.2762 1087.85 66.7697 1081.75 66.265ZM1286.99 152.851L1286.81 154H1287.98H1314.53H1315.63L1315.53 152.902C1314.85 145.973 1314 134.177 1314 129.325V82.8653C1332.25 89.1299 1356.94 98.6702 1373.99 107.551L1374.95 108.055L1375.37 107.048L1385.08 83.7108L1385.44 82.8398L1384.59 82.4275C1369.03 74.8652 1336.81 63.0116 1314 56.364V32.0868C1314 25.2201 1314.84 17.836 1315.53 11.908L1315.65 10.7937H1314.53H1287.98H1286.76L1287 11.991C1288.17 17.8187 1288.68 26.2007 1288.68 32.0868V129.325C1288.68 136.045 1288 146.142 1286.99 152.851ZM1540.05 10.0475L1539.59 9.37415L1538.84 9.6863L1525.39 15.2669L1524.23 15.7491L1524.96 16.7723C1529.15 22.6274 1533.78 31.6367 1537.3 38.4672C1537.59 39.0466 1537.88 39.6102 1538.17 40.155L1538.59 40.987L1539.45 40.6138L1553.07 34.695L1554.05 34.2687L1553.56 33.3187C1550.32 27.048 1544.34 16.3533 1540.05 10.0475ZM1560.13 2.43279L1559.67 1.76608L1558.93 2.07637L1545.48 7.65698L1544.3 8.14547L1545.06 9.1726C1549.6 15.3636 1555.19 25.2834 1558.58 32.1893L1559 33.0373L1559.87 32.6698L1573.49 26.9201L1574.48 26.4995L1573.99 25.5392C1570.9 19.5859 1564.59 8.89586 1560.13 2.43279ZM1438.21 92.5912L1438.2 92.6037C1432.45 107.4 1422.45 125.58 1411.79 139.367L1410.99 140.398L1412.19 140.901L1436.02 150.878L1436.76 151.187L1437.23 150.536C1446.3 137.773 1456.39 118.416 1462.54 101.941C1468.52 86.1511 1474.66 62.7627 1477.05 50.8862L1477.05 50.8775L1477.06 50.8689C1477.73 47.1746 1479.6 38.9301 1481.11 34.0761L1481.44 33.0195L1480.36 32.7981L1455.51 27.7248L1454.41 27.5023L1454.31 28.6099C1452.28 49.9752 1445.84 73.7251 1438.21 92.5912ZM1522.28 89.7572L1522.29 89.7642C1529.08 107.979 1535.19 129.245 1539.95 149.341L1540.2 150.394L1541.23 150.062L1566.43 141.945L1567.35 141.649L1567.08 140.719C1562.31 123.95 1553.28 96.8624 1547.3 81.6096L1547.3 81.6072C1540.83 65.1786 1529.06 39.0985 1522.06 26.0338L1521.67 25.2992L1520.87 25.5541L1498.24 32.8258L1497.07 33.1986L1497.67 34.264C1504.78 47.0579 1515.83 72.035 1522.28 89.7572ZM1586.98 78.8067L1585.77 79.1144L1586.33 80.2252L1597.06 101.533L1597.43 102.276L1598.23 102.044C1618.66 96.103 1639.73 87.2784 1657.04 78.3752V130.847C1657.04 138.282 1656.53 148.864 1655.86 152.835L1655.67 154H1656.85H1683.74H1685.06L1684.7 152.729C1684.14 150.734 1683.76 147.158 1683.53 143.071C1683.3 139.016 1683.21 134.555 1683.21 130.847V63.0661C1699.62 52.2645 1715.83 39.1581 1728.7 26.5438L1729.44 25.8175L1728.69 25.1039L1710.3 7.68559L1709.53 6.9503L1708.85 7.77365C1697.86 21.0429 1678.54 37.8821 1661.09 48.652C1642.29 60.0961 1617.36 71.0508 1586.98 78.8067Z" stroke="url(#paint1_linear_216_2)" stroke-width="2"/>
<defs>
<linearGradient id="paint0_linear_216_2" x1="826" y1="153" x2="566.497" y2="-311.352" gradientUnits="userSpaceOnUse">
<stop stop-color="#9A6A44"/>
<stop offset="0.28125" stop-color="#FFF4BC"/>
<stop offset="0.53125" stop-color="#AB6516"/>
<stop offset="0.760417" stop-color="#9C3E09"/>
<stop offset="1" stop-color="#E7D4A6"/>
</linearGradient>
<linearGradient id="paint1_linear_216_2" x1="1728" y1="153" x2="1468.5" y2="-311.352" gradientUnits="userSpaceOnUse">
<stop stop-color="#9A6A44"/>
<stop offset="0.28125" stop-color="#FFF4BC"/>
<stop offset="0.53125" stop-color="#AB6516"/>
<stop offset="0.760417" stop-color="#9C3E09"/>
<stop offset="1" stop-color="#E7D4A6"/>
</linearGradient>
</defs>
</svg>
