<svg width="222" height="261" viewBox="0 0 222 261" fill="none" xmlns="http://www.w3.org/2000/svg">
<path d="M61.552 75.7467C62.577 76.6479 68.1071 80.6892 73.0703 84.5524C76.0323 86.8578 83.9464 85.0006 85.3914 81.5364C89.2813 72.2105 93.9098 63.0434 99.2594 54.7007C109.003 39.5052 121.276 25.764 138.721 19.5071C153.043 14.37 171.976 12.7131 185.899 20.1502C222.975 39.9555 202.108 91.3644 188.646 118.774C174.202 148.184 155.377 174.638 135.973 200.912C127.235 212.743 117.459 224.327 111.419 237.889C110.354 240.28 110.074 248.336 106.479 245.167C91.4372 231.906 78.0365 216.013 64.6504 201.204C55.5064 191.088 42.8227 177.465 34.923 165.689C28.5342 156.165 26.8692 150.446 23.0261 139.82C19.8641 131.077 16.3347 122.483 15.6016 113.074C14.7579 102.248 16.8271 94.128 19.8108 83.7266C21.0982 79.2384 25.8084 55.7273 35.3907 58.8222C44.9089 61.8964 54.1319 69.2221 61.552 75.7467Z" fill="#FFA6F1" stroke="#FFA6F1" stroke-width="30" stroke-linecap="round"/>
</svg>
