<svg width="168" height="31" viewBox="0 0 168 31" fill="none" xmlns="http://www.w3.org/2000/svg">
<path d="M31.1934 14.1874L24.7611 19.7612L26.7208 28.0966C26.8289 28.5491 26.8011 29.0236 26.6408 29.4602C26.4805 29.8969 26.1949 30.276 25.8202 30.5497C25.4454 30.8234 24.9983 30.9794 24.5353 30.9981C24.0723 31.0168 23.6142 30.8972 23.2188 30.6545L16.0003 26.1933L8.77752 30.6545C8.38218 30.8958 7.9246 31.0142 7.46238 30.9949C7.00016 30.9755 6.55397 30.8193 6.18001 30.5458C5.80604 30.2723 5.52102 29.8938 5.36082 29.458C5.20063 29.0222 5.17242 28.5485 5.27977 28.0966L7.24663 19.7612L0.814313 14.1874C0.464535 13.8839 0.21157 13.4835 0.087008 13.0365C-0.0375537 12.5894 -0.0281908 12.1153 0.113927 11.6736C0.256045 11.2318 0.52462 10.8418 0.88611 10.5524C1.2476 10.263 1.68599 10.087 2.14652 10.0463L10.58 9.36302L13.8333 1.45675C14.0094 1.02586 14.3091 0.65729 14.6943 0.397896C15.0796 0.138502 15.5329 0 15.9967 0C16.4605 0 16.9139 0.138502 17.2991 0.397896C17.6843 0.65729 17.984 1.02586 18.1601 1.45675L21.412 9.36302L29.8455 10.0463C30.3069 10.0855 30.7466 10.2605 31.1094 10.5495C31.4722 10.8385 31.742 11.2286 31.885 11.671C32.028 12.1133 32.0379 12.5881 31.9133 13.036C31.7888 13.4839 31.5353 13.885 31.1848 14.1889L31.1934 14.1874Z" fill="#F6FF8C"/>
<path d="M65.1934 14.1874L58.7611 19.7612L60.7208 28.0966C60.8289 28.5491 60.8011 29.0236 60.6408 29.4602C60.4805 29.8969 60.1949 30.276 59.8202 30.5497C59.4454 30.8234 58.9983 30.9794 58.5353 30.9981C58.0723 31.0168 57.6142 30.8972 57.2188 30.6545L50.0003 26.1933L42.7775 30.6545C42.3822 30.8958 41.9246 31.0142 41.4624 30.9949C41.0002 30.9755 40.554 30.8193 40.18 30.5458C39.806 30.2723 39.521 29.8938 39.3608 29.458C39.2006 29.0222 39.1724 28.5485 39.2798 28.0966L41.2466 19.7612L34.8143 14.1874C34.4645 13.8839 34.2116 13.4835 34.087 13.0365C33.9624 12.5894 33.9718 12.1153 34.1139 11.6736C34.256 11.2318 34.5246 10.8418 34.8861 10.5524C35.2476 10.263 35.686 10.087 36.1465 10.0463L44.58 9.36302L47.8333 1.45675C48.0094 1.02586 48.3091 0.65729 48.6943 0.397896C49.0796 0.138502 49.5329 0 49.9967 0C50.4605 0 50.9139 0.138502 51.2991 0.397896C51.6843 0.65729 51.984 1.02586 52.1601 1.45675L55.412 9.36302L63.8455 10.0463C64.3069 10.0855 64.7466 10.2605 65.1094 10.5495C65.4722 10.8385 65.742 11.2286 65.885 11.671C66.028 12.1133 66.0379 12.5881 65.9133 13.036C65.7888 13.4839 65.5353 13.885 65.1848 14.1889L65.1934 14.1874Z" fill="#F6FF8C"/>
<path d="M99.1934 14.1874L92.7611 19.7612L94.7208 28.0966C94.8289 28.5491 94.8011 29.0236 94.6408 29.4602C94.4805 29.8969 94.1949 30.276 93.8202 30.5497C93.4454 30.8234 92.9983 30.9794 92.5353 30.9981C92.0723 31.0168 91.6142 30.8972 91.2188 30.6545L84.0003 26.1933L76.7775 30.6545C76.3822 30.8958 75.9246 31.0142 75.4624 30.9949C75.0002 30.9755 74.554 30.8193 74.18 30.5458C73.806 30.2723 73.521 29.8938 73.3608 29.458C73.2006 29.0222 73.1724 28.5485 73.2798 28.0966L75.2466 19.7612L68.8143 14.1874C68.4645 13.8839 68.2116 13.4835 68.087 13.0365C67.9624 12.5894 67.9718 12.1153 68.1139 11.6736C68.256 11.2318 68.5246 10.8418 68.8861 10.5524C69.2476 10.263 69.686 10.087 70.1465 10.0463L78.58 9.36302L81.8333 1.45675C82.0094 1.02586 82.3091 0.65729 82.6943 0.397896C83.0796 0.138502 83.5329 0 83.9967 0C84.4605 0 84.9139 0.138502 85.2991 0.397896C85.6843 0.65729 85.984 1.02586 86.1601 1.45675L89.412 9.36302L97.8455 10.0463C98.3069 10.0855 98.7466 10.2605 99.1094 10.5495C99.4722 10.8385 99.742 11.2286 99.885 11.671C100.028 12.1133 100.038 12.5881 99.9133 13.036C99.7888 13.4839 99.5353 13.885 99.1848 14.1889L99.1934 14.1874Z" fill="#F6FF8C"/>
<path d="M133.193 14.1874L126.761 19.7612L128.721 28.0966C128.829 28.5491 128.801 29.0236 128.641 29.4602C128.48 29.8969 128.195 30.276 127.82 30.5497C127.445 30.8234 126.998 30.9794 126.535 30.9981C126.072 31.0168 125.614 30.8972 125.219 30.6545L118 26.1933L110.778 30.6545C110.382 30.8958 109.925 31.0142 109.462 30.9949C109 30.9755 108.554 30.8193 108.18 30.5458C107.806 30.2723 107.521 29.8938 107.361 29.458C107.201 29.0222 107.172 28.5485 107.28 28.0966L109.247 19.7612L102.814 14.1874C102.465 13.8839 102.212 13.4835 102.087 13.0365C101.962 12.5894 101.972 12.1153 102.114 11.6736C102.256 11.2318 102.525 10.8418 102.886 10.5524C103.248 10.263 103.686 10.087 104.147 10.0463L112.58 9.36302L115.833 1.45675C116.009 1.02586 116.309 0.65729 116.694 0.397896C117.08 0.138502 117.533 0 117.997 0C118.461 0 118.914 0.138502 119.299 0.397896C119.684 0.65729 119.984 1.02586 120.16 1.45675L123.412 9.36302L131.845 10.0463C132.307 10.0855 132.747 10.2605 133.109 10.5495C133.472 10.8385 133.742 11.2286 133.885 11.671C134.028 12.1133 134.038 12.5881 133.913 13.036C133.789 13.4839 133.535 13.885 133.185 14.1889L133.193 14.1874Z" fill="#F6FF8C"/>
<path d="M167.193 14.1874L160.761 19.7612L162.721 28.0966C162.829 28.5491 162.801 29.0236 162.641 29.4602C162.48 29.8969 162.195 30.276 161.82 30.5497C161.445 30.8234 160.998 30.9794 160.535 30.9981C160.072 31.0168 159.614 30.8972 159.219 30.6545L152 26.1933L144.778 30.6545C144.382 30.8958 143.925 31.0142 143.462 30.9949C143 30.9755 142.554 30.8193 142.18 30.5458C141.806 30.2723 141.521 29.8938 141.361 29.458C141.201 29.0222 141.172 28.5485 141.28 28.0966L143.247 19.7612L136.814 14.1874C136.465 13.8839 136.212 13.4835 136.087 13.0365C135.962 12.5894 135.972 12.1153 136.114 11.6736C136.256 11.2318 136.525 10.8418 136.886 10.5524C137.248 10.263 137.686 10.087 138.147 10.0463L146.58 9.36302L149.833 1.45675C150.009 1.02586 150.309 0.65729 150.694 0.397896C151.08 0.138502 151.533 0 151.997 0C152.461 0 152.914 0.138502 153.299 0.397896C153.684 0.65729 153.984 1.02586 154.16 1.45675L157.412 9.36302L165.845 10.0463C166.307 10.0855 166.747 10.2605 167.109 10.5495C167.472 10.8385 167.742 11.2286 167.885 11.671C168.028 12.1133 168.038 12.5881 167.913 13.036C167.789 13.4839 167.535 13.885 167.185 14.1889L167.193 14.1874Z" fill="#F6FF8C"/>
</svg>
