<svg width="113" height="78" viewBox="0 0 113 78" fill="none" xmlns="http://www.w3.org/2000/svg">
<path d="M47.9117 8.13141C37.2755 2.57157 19.2796 18.8916 17.406 26.9215C12.5524 32.0693 8.48861 34.5415 5.32989 41.7463C1.07796 51.4445 2.24454 59.2559 12.179 64.1412C16.0965 66.0676 22.689 65.2752 26.2829 67.746C28.3864 69.1921 23.4009 74.9783 23.0836 75.4963C16.9931 85.4381 8.27164 102.569 17.406 113.617C23.0683 120.466 34.6275 107.522 37.9084 104.29C47.2638 95.0739 59.6875 83.9869 61.7452 70.2693C62.3828 66.0183 61.3893 61.3393 64.3587 57.7426C73.8629 46.2304 89.0204 63.5348 95.1798 70.1342C96.6426 71.7015 105.541 81.1513 105.769 74.4149C106.143 63.3841 104.983 52.08 101.533 41.566C98.214 31.4502 92.9737 22.7475 82.8333 18.5403C75.969 15.6923 67.2837 13.7393 59.9428 15.8367C57.3768 16.5698 50.8895 22.0971 50.6604 16.828C50.523 13.6688 51.3107 9.90818 47.9117 8.13141Z" fill="#F6FF8C" stroke="#F6FF8C" stroke-width="13" stroke-linecap="round"/>
</svg>
