<svg width="690" height="567" viewBox="0 0 690 567" fill="none" xmlns="http://www.w3.org/2000/svg">
<path d="M689.632 -4.0554C673.673 27.1375 645.285 45.7112 615.657 63.0025C592.148 76.7229 563.72 96.4736 535.533 97.5883C491.265 99.339 497.068 44.9034 511.9 17.4646C519.607 3.20595 540.28 -18.4363 559.167 -15.7761C591.023 -11.2893 582.032 60.0231 577.421 79.0465C571.008 105.497 553.118 126.902 535.053 146.393C515.274 167.733 493.499 186.121 469.34 202.306C409.466 242.419 347.336 279.393 285.651 316.631C222.675 354.65 154.691 383.65 92.8358 423.751C65.0591 441.759 43.9085 461.961 26.9307 490.521C12.5024 514.792 1.56869 540.54 -9 566.609" stroke="#2B9AD8" stroke-width="30" stroke-linecap="round"/>
</svg>
