<svg width="462" height="652" viewBox="0 0 462 652" fill="none" xmlns="http://www.w3.org/2000/svg">
<path d="M95.0407 186.902L65.7055 127.478L83.322 123.894L94.2505 148.489C96.3379 153.406 98.1276 157.688 99.6194 161.334C101.123 164.962 102.52 168.519 103.812 172.007L102.665 172.24C102.345 168.035 102.1 163.86 101.931 159.715C101.773 155.553 101.672 151.334 101.628 147.056L101.798 120.134L120.143 116.402L130.983 141.014C132.462 144.448 134.024 148.248 135.667 152.414C137.308 156.566 138.86 160.62 140.324 164.578L138.824 164.883C138.728 160.723 138.629 156.473 138.526 152.131C138.435 147.772 138.338 143.574 138.237 139.538L138.839 112.597L156.39 109.026L152.542 175.202L132.92 179.195L119.856 149.524C118.352 145.896 116.85 142.122 115.348 138.203C113.861 134.281 112.166 129.712 110.263 124.497L114.024 123.685C114.294 128.774 114.519 133.527 114.699 137.945C114.878 142.363 114.995 146.548 115.05 150.502L114.664 182.91L95.0407 186.902ZM185.111 170.297C180.011 171.335 175.374 171.23 171.202 169.982C167.041 168.716 163.588 166.457 160.845 163.203C158.098 159.935 156.229 155.869 155.239 151.003C154.258 146.182 154.425 141.732 155.738 137.654C157.048 133.56 159.365 130.127 162.688 127.353C166.024 124.562 170.139 122.669 175.034 121.673C180.384 120.584 185.137 120.849 189.294 122.468C193.45 124.087 196.828 126.66 199.429 130.187C202.026 133.7 203.79 137.742 204.72 142.313C204.81 142.754 204.9 143.195 204.989 143.636C205.076 144.062 205.164 144.496 205.254 144.937L165.016 153.124L163.19 144.151L195.116 137.654L187.831 141.571C187.285 139.263 186.519 137.421 185.535 136.045C184.551 134.669 183.368 133.746 181.987 133.277C180.603 132.793 179.014 132.734 177.221 133.099C175.251 133.499 173.686 134.269 172.525 135.409C171.378 136.545 170.645 138.095 170.325 140.058C170.017 142.004 170.151 144.395 170.728 147.232L170.971 148.422C171.548 151.259 172.384 153.523 173.478 155.214C174.584 156.887 175.924 158.023 177.5 158.62C179.088 159.2 180.91 159.281 182.968 158.862C184.1 158.632 185.102 158.29 185.974 157.837C186.858 157.367 187.605 156.786 188.214 156.096C188.821 155.391 189.299 154.582 189.649 153.668L205.228 151.578C204.665 154.754 203.524 157.611 201.806 160.15C200.084 162.674 197.816 164.804 195.001 166.54C192.185 168.276 188.889 169.529 185.111 170.297ZM253.578 156.343C250.741 156.92 248.069 156.913 245.56 156.321C243.067 155.726 240.812 154.578 238.797 152.875C236.78 151.158 235.066 148.943 233.657 146.229L228.87 122.704C229.59 120.001 230.657 117.61 232.071 115.532C233.5 113.45 235.227 111.744 237.252 110.413C239.278 109.083 241.54 108.163 244.039 107.655C247.743 106.901 251.255 107.158 254.574 108.427C257.908 109.693 260.783 111.97 263.197 115.26C265.623 118.532 267.351 122.696 268.38 127.752C269.391 132.721 269.457 137.223 268.579 141.259C267.701 145.295 265.974 148.616 263.397 151.222C260.82 153.828 257.547 155.535 253.578 156.343ZM223.856 160.691L211.079 97.8982L227.284 94.6008L232.767 121.544L231.885 121.723L236.712 145.447L237.418 145.303L238.849 157.641L223.856 160.691ZM246.217 144.087C247.834 143.758 249.151 143.046 250.168 141.951C251.185 140.857 251.849 139.382 252.161 137.528C252.469 135.659 252.363 133.445 251.843 130.888C251.325 128.345 250.565 126.303 249.563 124.762C248.558 123.206 247.377 122.145 246.022 121.579C244.682 121.01 243.196 120.891 241.564 121.223C239.8 121.582 238.353 122.366 237.221 123.576C236.102 124.768 235.357 126.298 234.986 128.164C234.628 130.013 234.682 132.083 235.148 134.376C235.618 136.684 236.382 138.633 237.44 140.224C238.513 141.812 239.8 142.944 241.299 143.618C242.814 144.29 244.453 144.446 246.217 144.087ZM289.679 148.653C286.151 149.371 282.993 149.347 280.205 148.583C277.416 147.818 275.093 146.332 273.236 144.123C271.392 141.911 270.109 139.026 269.385 135.469L263.243 105.285L279.449 101.988L284.801 128.291C285.118 129.85 285.636 131.114 286.354 132.086C287.087 133.054 287.979 133.714 289.03 134.067C290.096 134.416 291.291 134.456 292.613 134.187C294.113 133.882 295.386 133.256 296.433 132.308C297.492 131.342 298.219 130.1 298.614 128.581C299.023 127.058 299.035 125.349 298.649 123.453L303.147 122.538L306.099 137.046L302.946 137.687C302.191 139.693 301.191 141.435 299.946 142.913C298.697 144.376 297.214 145.589 295.497 146.55C293.794 147.509 291.854 148.21 289.679 148.653ZM304.297 144.324L301.137 133.647L300.74 133.727L293.692 99.0898L309.897 95.7923L319.157 141.3L304.297 144.324ZM320.892 140.947L311.632 95.4393L327.838 92.1419L337.098 137.649L320.892 140.947ZM310.372 89.2438L308.115 78.1535L324.321 74.8561L326.577 85.9463L310.372 89.2438ZM338.879 137.287L326.102 74.4937L342.307 71.1963L355.084 133.99L338.879 137.287ZM374.681 131.701C370.713 132.509 367.035 132.224 363.647 130.847C360.271 129.452 357.392 127.076 355.01 123.718C352.642 120.358 350.953 116.193 349.942 111.225C348.913 106.169 348.867 101.655 349.804 97.6833C350.753 93.694 352.507 90.467 355.067 88.002C357.638 85.5194 360.776 83.9013 364.48 83.1476C366.979 82.6391 369.421 82.6015 371.805 83.0348C374.189 83.4681 376.438 84.3652 378.552 85.7261C380.681 87.0839 382.597 88.8676 384.302 91.077L389.089 114.602C388.852 117.651 388.14 120.36 386.954 122.729C385.764 125.083 384.131 127.023 382.053 128.548C379.99 130.07 377.533 131.121 374.681 131.701ZM376.69 117.539C378.454 117.18 379.894 116.397 381.011 115.19C382.143 113.98 382.892 112.435 383.259 110.553C383.627 108.672 383.576 106.578 383.106 104.27C382.639 101.977 381.873 100.052 380.805 98.4931C379.75 96.9169 378.467 95.8004 376.955 95.1436C375.456 94.469 373.824 94.3112 372.06 94.6701C370.428 95.0021 369.101 95.7008 368.078 96.7662C367.052 97.8169 366.382 99.2621 366.067 101.102C365.764 102.924 365.872 105.106 366.389 107.649C366.909 110.207 367.668 112.279 368.665 113.868C369.676 115.453 370.855 116.545 372.201 117.143C373.562 117.739 375.059 117.871 376.69 117.539ZM388.769 127.135L385.287 115.215L385.993 115.072L381.165 91.3479L380.284 91.5273L374.801 64.5844L390.985 61.2915L403.762 124.085L388.769 127.135Z" fill="#F6FF8C"/>
<path d="M79.5896 344.532L88.9364 289.338L106.883 292.377L97.5366 347.571L79.5896 344.532ZM68.936 293.573L71.5432 278.177L126.915 287.554L124.308 302.95L68.936 293.573ZM150.22 329.268C150.485 327.7 150.451 326.333 150.116 325.166C149.796 324.001 149.201 323.063 148.333 322.353C147.479 321.646 146.386 321.179 145.055 320.954C143.547 320.699 142.125 320.831 140.789 321.35C139.471 321.857 138.347 322.747 137.416 324.019C136.501 325.294 135.881 326.886 135.558 328.793L131.235 326.829L133.505 313.43L136.677 313.967C138.104 312.368 139.663 311.111 141.355 310.195C143.049 309.265 144.863 308.659 146.797 308.378C148.746 308.1 150.815 308.146 153.004 308.517C156.553 309.118 159.491 310.277 161.817 311.994C164.143 313.712 165.767 315.934 166.689 318.662C167.627 321.391 167.792 324.546 167.186 328.125L162.043 358.495L145.738 355.734L150.22 329.268ZM115.102 350.546L125.801 287.365L142.106 290.126L131.407 353.307L115.102 350.546ZM186.29 364.313C181.158 363.443 176.871 361.675 173.428 359.008C170.002 356.328 167.595 352.977 166.208 348.954C164.822 344.916 164.544 340.449 165.373 335.554C166.195 330.703 167.953 326.612 170.647 323.28C173.343 319.933 176.742 317.565 180.841 316.175C184.958 314.772 189.479 314.488 194.404 315.322C199.787 316.234 204.126 318.193 207.42 321.2C210.714 324.208 212.939 327.825 214.094 332.052C215.252 336.265 215.442 340.671 214.663 345.27C214.588 345.714 214.513 346.157 214.438 346.601C214.365 347.03 214.291 347.466 214.216 347.91L173.73 341.054L175.259 332.025L207.382 337.465L199.174 338.494C199.496 336.145 199.446 334.151 199.024 332.512C198.601 330.874 197.83 329.587 196.711 328.652C195.594 327.702 194.133 327.074 192.329 326.769C190.347 326.433 188.609 326.588 187.115 327.232C185.637 327.88 184.394 329.061 183.389 330.777C182.4 332.481 181.665 334.76 181.181 337.615L180.978 338.813C180.495 341.667 180.459 344.08 180.871 346.051C181.3 348.01 182.141 349.553 183.396 350.678C184.668 351.791 186.339 352.523 188.41 352.873C189.549 353.066 190.607 353.108 191.583 353C192.577 352.879 193.483 352.607 194.301 352.182C195.12 351.743 195.858 351.16 196.513 350.435L211.799 354.096C210.13 356.856 208.037 359.11 205.519 360.86C203.004 362.594 200.121 363.764 196.869 364.37C193.617 364.975 190.091 364.956 186.29 364.313ZM225.894 369.308L233.648 323.52L248.6 326.052L247.702 337.15L248.049 337.528L242.199 372.069L225.894 369.308ZM261.012 348.03C261.278 346.462 261.243 345.095 260.908 343.928C260.588 342.763 259.994 341.825 259.125 341.115C258.271 340.408 257.179 339.941 255.848 339.716C254.339 339.461 252.917 339.593 251.582 340.112C250.264 340.619 249.139 341.509 248.209 342.781C247.293 344.056 246.674 345.648 246.351 347.555L241.825 346.789L244.297 332.192L247.469 332.729C248.896 331.13 250.456 329.873 252.147 328.957C253.841 328.027 255.656 327.421 257.59 327.14C259.538 326.862 261.607 326.908 263.796 327.279C267.346 327.88 270.283 329.039 272.609 330.756C274.935 332.474 276.559 334.696 277.482 337.424C278.419 340.153 278.585 343.308 277.979 346.887L272.836 377.257L256.53 374.496L261.012 348.03ZM297.083 383.075C291.951 382.206 287.663 380.437 284.22 377.77C280.795 375.09 278.388 371.739 277 367.716C275.615 363.678 275.337 359.211 276.166 354.316C276.987 349.465 278.745 345.374 281.439 342.042C284.136 338.695 287.534 336.327 291.634 334.937C295.751 333.534 300.272 333.25 305.196 334.084C310.58 334.996 314.919 336.955 318.213 339.962C321.507 342.97 323.732 346.587 324.887 350.814C326.045 355.027 326.234 359.433 325.456 364.032C325.38 364.476 325.305 364.919 325.23 365.363C325.157 365.792 325.084 366.228 325.008 366.672L284.522 359.816L286.051 350.787L318.174 356.227L309.967 357.256C310.289 354.907 310.238 352.913 309.816 351.274C309.394 349.636 308.623 348.349 307.503 347.414C306.386 346.464 304.925 345.836 303.121 345.531C301.139 345.195 299.402 345.35 297.908 345.994C296.429 346.642 295.187 347.823 294.181 349.539C293.193 351.243 292.457 353.522 291.974 356.377L291.771 357.575C291.287 360.429 291.252 362.842 291.663 364.813C292.092 366.772 292.934 368.315 294.189 369.44C295.461 370.553 297.132 371.285 299.202 371.635C300.341 371.828 301.399 371.87 302.376 371.762C303.37 371.641 304.276 371.369 305.093 370.944C305.913 370.505 306.651 369.922 307.306 369.197L322.592 372.858C320.922 375.618 318.829 377.872 316.312 379.622C313.797 381.356 310.914 382.526 307.662 383.132C304.41 383.737 300.884 383.718 297.083 383.075ZM313.574 384.156L340.262 357.138L337.934 370.481L323.413 338.721L341.338 341.756L343.465 347.662C344.047 349.525 344.62 351.486 345.184 353.544C345.763 355.604 346.376 357.914 347.023 360.473L341.299 359.504C342.659 357.498 343.989 355.57 345.291 353.722C346.608 351.876 347.84 350.167 348.988 348.597L352.874 343.71L371.021 346.783L346.376 371.842L348.626 358.554L364.82 392.834L346.584 389.746L343.304 380.952C342.597 378.931 341.905 376.904 341.23 374.873C340.555 372.842 339.876 370.787 339.193 368.709L346.026 369.866C344.737 371.549 343.437 373.246 342.128 374.957C340.834 376.67 339.518 378.379 338.179 380.084L332.165 387.304L313.574 384.156ZM381.258 395.618C377.457 394.974 374.557 393.996 372.558 392.684C370.559 391.372 369.268 389.563 368.685 387.258C368.119 384.941 368.159 381.875 368.805 378.059L371.57 361.732L373.17 352.281L374.865 342.276L376.39 333.27L392.673 336.027L391.148 345.034L389.453 355.039L387.853 364.489L385.456 378.643C385.268 379.752 385.276 380.696 385.478 381.476C385.681 382.256 386.078 382.879 386.668 383.344C387.262 383.794 388.061 384.104 389.067 384.275C389.673 384.377 390.279 384.48 390.886 384.583C391.492 384.685 392.106 384.789 392.727 384.895L393.393 385.007L391.308 397.319C391.13 397.289 390.953 397.259 390.775 397.229C390.612 397.202 390.45 397.174 390.287 397.147C388.779 396.891 387.27 396.636 385.761 396.38C384.268 396.127 382.767 395.873 381.258 395.618ZM364.963 356.277L366.695 346.05L381.572 349.026L399.084 351.535L397.352 361.762L379.68 358.313L364.963 356.277Z" fill="#F6FF8C"/>
<path d="M60.2409 596.431C54.7871 597.926 49.484 597.957 44.3317 596.523C39.1753 595.075 34.648 592.233 30.7497 587.998C26.8514 583.763 24.0041 578.369 22.2077 571.815C20.4114 565.262 20.1285 559.18 21.3593 553.57C22.59 547.961 25.1571 543.197 29.0607 539.281C32.9747 535.346 37.9335 532.556 43.937 530.911C48.6675 529.614 53.1933 529.244 57.5145 529.802C61.85 530.355 65.7342 531.787 69.1669 534.097C72.5957 536.392 75.3558 539.453 77.4472 543.282L60.9079 549.075C59.901 547.672 58.7228 546.579 57.3733 545.798C56.0238 545.017 54.5524 544.557 52.959 544.419C51.3657 544.28 49.7155 544.444 48.0085 544.912C45.2165 545.678 43.0218 547.034 41.4246 548.98C39.8234 550.912 38.8695 553.39 38.5629 556.414C38.2708 559.433 38.668 562.925 39.7546 566.889C40.9006 571.069 42.3948 574.393 44.2372 576.858C46.0901 579.306 48.2971 580.917 50.8582 581.692C53.4298 582.45 56.3648 582.376 59.6631 581.472C62.1514 580.79 64.1906 579.803 65.7808 578.512C67.3814 577.202 68.5133 575.515 69.1763 573.452C69.8498 571.37 69.9631 568.889 69.516 566.01L73.8342 564.826L77.3377 577.607C77.4787 579.824 76.9443 582.186 75.7346 584.695C74.5354 587.186 72.6261 589.498 70.0069 591.631C67.3877 593.765 64.1324 595.365 60.2409 596.431ZM79.3615 589.16L71.6168 572.993L70.3915 568.523L58.9341 571.663L55.5377 559.273L81.9243 552.04L91.2095 585.913L79.3615 589.16ZM116.484 580.734C111.464 582.11 106.831 582.315 102.584 581.348C98.348 580.363 94.7525 578.339 91.7977 575.276C88.8389 572.199 86.7032 568.266 85.3907 563.478C84.09 558.733 83.9586 554.282 84.9965 550.124C86.0304 545.953 88.113 542.372 91.2442 539.383C94.3859 536.376 98.3653 534.212 103.183 532.891C108.448 531.448 113.209 531.395 117.464 532.733C121.719 534.07 125.261 536.412 128.092 539.758C130.918 543.089 132.948 547.004 134.181 551.503C134.3 551.937 134.419 552.371 134.538 552.805C134.653 553.225 134.77 553.652 134.889 554.086L95.2871 564.941L92.8662 556.109L124.287 547.496L117.279 551.89C116.581 549.625 115.694 547.838 114.62 546.53C113.546 545.223 112.305 544.381 110.895 544.005C109.482 543.615 107.893 543.662 106.128 544.145C104.189 544.677 102.679 545.55 101.596 546.764C100.528 547.974 99.9001 549.57 99.7119 551.55C99.5342 553.512 99.828 555.889 100.593 558.681L100.915 559.852C101.68 562.644 102.665 564.847 103.869 566.461C105.084 568.057 106.498 569.1 108.11 569.592C109.733 570.064 111.557 570.023 113.582 569.468C114.696 569.163 115.673 568.755 116.513 568.245C117.364 567.716 118.07 567.087 118.632 566.357C119.19 565.613 119.613 564.774 119.902 563.84L135.306 560.714C134.956 563.92 134.009 566.847 132.464 569.495C130.915 572.128 128.794 574.405 126.1 576.325C123.407 578.246 120.202 579.715 116.484 580.734ZM139.426 572.696L127.149 527.908L141.775 523.899L145.64 534.341L146.114 534.538L155.376 568.324L139.426 572.696ZM162.297 538.594C161.877 537.06 161.269 535.835 160.473 534.918C159.692 533.996 158.758 533.397 157.671 533.12C156.598 532.838 155.411 532.876 154.109 533.233C152.633 533.637 151.399 534.356 150.407 535.39C149.426 536.406 148.782 537.687 148.475 539.233C148.182 540.775 148.291 542.48 148.803 544.346L144.376 545.559L140.462 531.281L143.565 530.43C144.185 528.379 145.069 526.581 146.216 525.038C147.36 523.48 148.75 522.166 150.385 521.095C152.035 520.021 153.93 519.19 156.071 518.603C159.543 517.652 162.696 517.464 165.529 518.041C168.362 518.617 170.772 519.947 172.759 522.031C174.76 524.111 176.24 526.902 177.2 530.403L185.343 560.109L169.393 564.481L162.297 538.594ZM209.782 555.16C204.762 556.536 200.129 556.741 195.882 555.774C191.646 554.789 188.05 552.765 185.095 549.702C182.137 546.625 180.001 542.692 178.688 537.903C177.388 533.158 177.256 528.707 178.294 524.55C179.328 520.378 181.411 516.798 184.542 513.809C187.684 510.801 191.663 508.637 196.48 507.317C201.746 505.873 206.507 505.82 210.762 507.158C215.017 508.496 218.559 510.838 221.389 514.183C224.216 517.515 226.245 521.43 227.479 525.929C227.598 526.363 227.717 526.797 227.836 527.231C227.951 527.651 228.068 528.077 228.186 528.511L188.585 539.367L186.164 530.535L217.585 521.922L210.577 526.316C209.878 524.05 208.992 522.263 207.918 520.956C206.844 519.648 205.602 518.806 204.193 518.431C202.779 518.04 201.19 518.087 199.425 518.571C197.487 519.102 195.976 519.975 194.894 521.19C193.826 522.4 193.198 523.995 193.01 525.976C192.832 527.937 193.126 530.314 193.891 533.106L194.212 534.278C194.978 537.07 195.963 539.273 197.167 540.887C198.382 542.483 199.796 543.526 201.408 544.017C203.031 544.49 204.855 544.449 206.88 543.894C207.994 543.588 208.971 543.181 209.811 542.67C210.661 542.142 211.368 541.513 211.93 540.783C212.488 540.039 212.911 539.2 213.199 538.265L228.604 535.139C228.254 538.346 227.306 541.273 225.761 543.921C224.212 546.554 222.091 548.831 219.398 550.751C216.705 552.671 213.499 554.141 209.782 555.16ZM232.724 547.121L220.447 502.333L235.29 498.265L238.861 508.484L240.322 512.283L248.673 542.749L232.724 547.121ZM237.18 508.735C237.11 506.779 237.41 504.753 238.08 502.656C238.76 500.541 239.912 498.615 241.536 496.879C243.174 495.139 245.317 493.907 247.964 493.181C248.586 493.01 249.263 492.871 249.996 492.764C250.725 492.642 251.503 492.561 252.332 492.52L256.139 506.408C255.454 506.518 254.782 506.648 254.123 506.797C253.474 506.928 252.861 507.073 252.282 507.232C249.606 507.965 247.468 509.018 245.869 510.389C244.27 511.761 243.224 513.424 242.734 515.378C242.243 517.333 242.329 519.549 242.993 522.026L241.04 522.562L237.18 508.735ZM293.889 530.355C293.657 530.076 293.43 529.789 293.209 529.492C292.984 529.18 292.775 528.872 292.582 528.567C292.168 527.965 291.772 527.311 291.392 526.607C291.026 525.898 290.652 525.099 290.268 524.209C289.894 523.3 289.517 522.291 289.135 521.183L288.754 519.794L285.418 507.621L284.757 505.212L283.365 500.134C283.072 499.064 282.587 498.232 281.912 497.64C281.247 497.029 280.371 496.67 279.284 496.564C278.211 496.453 276.952 496.597 275.505 496.993C274.102 497.378 272.989 497.885 272.166 498.515C271.354 499.126 270.797 499.901 270.494 500.84C270.187 501.764 270.14 502.896 270.352 504.238L255.057 507.847C254.478 504.258 254.682 501.115 255.669 498.418C256.652 495.706 258.542 493.353 261.339 491.358C264.15 489.358 268.008 487.686 272.912 486.342C277.643 485.045 281.748 484.503 285.228 484.716C288.719 484.91 291.617 485.951 293.923 487.838C296.225 489.711 297.888 492.514 298.911 496.246L304.157 515.385C304.534 516.76 304.976 518.062 305.484 519.291C306.003 520.502 306.602 521.668 307.282 522.788C307.977 523.904 308.779 524.983 309.686 526.025L293.889 530.355ZM277.777 535.751C274.595 536.624 271.653 536.87 268.951 536.491C266.25 536.112 263.96 535.106 262.082 533.475C260.204 531.843 258.882 529.631 258.117 526.839C257.51 524.626 257.408 522.523 257.811 520.531C258.228 518.534 259.319 516.641 261.083 514.851C262.862 513.057 265.432 511.481 268.793 510.125L284.917 503.582C285.486 503.332 285.933 503.031 286.256 502.678C286.589 502.307 286.785 501.857 286.842 501.328C286.914 500.795 286.86 500.172 286.68 499.459L292.401 501.437C292.724 502.842 292.828 504.073 292.714 505.131C292.599 506.189 292.229 507.107 291.602 507.885C290.972 508.649 290.075 509.291 288.911 509.813L278.097 514.62C276.725 515.229 275.651 515.881 274.877 516.576C274.099 517.256 273.592 517.986 273.355 518.766C273.132 519.543 273.142 520.372 273.384 521.255C273.649 522.224 274.107 522.985 274.756 523.538C275.42 524.087 276.233 524.416 277.197 524.525C278.174 524.631 279.271 524.517 280.486 524.184C282.236 523.704 283.682 522.934 284.822 521.875C285.963 520.816 286.724 519.565 287.107 518.123C287.499 516.662 287.472 515.114 287.024 513.48L290.626 512.492L291.524 515.769C291.865 519.284 291.548 522.38 290.571 525.059C289.609 527.733 288.051 529.965 285.897 531.753C283.739 533.526 281.032 534.859 277.777 535.751ZM327.662 521.097C323.944 522.117 320.902 522.453 318.536 522.106C316.17 521.759 314.237 520.663 312.736 518.82C311.246 516.957 309.989 514.16 308.966 510.428L304.588 494.457L302.054 485.213L299.371 475.426L296.956 466.616L312.884 462.25L315.299 471.06L317.981 480.847L320.515 490.091L324.31 503.935C324.608 505.02 325.013 505.874 325.525 506.495C326.038 507.117 326.66 507.514 327.392 507.687C328.119 507.845 328.975 507.789 329.959 507.52C330.552 507.357 331.145 507.194 331.738 507.032C332.331 506.869 332.932 506.705 333.539 506.538L334.19 506.36L337.492 518.403C337.318 518.45 337.144 518.498 336.971 518.546C336.812 518.589 336.652 518.633 336.493 518.676C335.018 519.081 333.542 519.485 332.067 519.89C330.606 520.29 329.137 520.693 327.662 521.097ZM296.297 492.297L293.555 482.293L308.299 478.718L325.236 473.609L327.978 483.613L310.5 487.937L296.297 492.297ZM337.791 518.321L325.513 473.533L341.463 469.161L353.74 513.949L337.791 518.321ZM323.842 467.436L320.85 456.521L336.799 452.149L339.791 463.064L323.842 467.436ZM378.268 508.975C373.363 510.32 368.788 510.508 364.541 509.542C360.291 508.56 356.65 506.541 353.619 503.484C350.598 500.408 348.436 496.49 347.131 491.731C345.826 486.971 345.698 482.504 346.747 478.328C347.795 474.152 349.899 470.566 353.059 467.569C356.234 464.568 360.259 462.399 365.134 461.063C370.009 459.726 374.57 459.542 378.817 460.508C383.078 461.471 386.724 463.481 389.755 466.539C392.782 469.582 394.95 473.49 396.259 478.264C397.567 483.038 397.699 487.52 396.655 491.71C395.607 495.886 393.495 499.474 390.32 502.475C387.16 505.472 383.143 507.639 378.268 508.975ZM375.186 497.735C377.038 497.227 378.454 496.349 379.434 495.101C380.409 493.838 380.951 492.181 381.057 490.13C381.164 488.079 380.821 485.606 380.027 482.713C379.234 479.82 378.271 477.525 377.137 475.83C376 474.12 374.684 472.979 373.19 472.409C371.711 471.835 370.052 471.799 368.215 472.303C366.363 472.811 364.948 473.689 363.968 474.937C362.988 476.186 362.445 477.835 362.338 479.886C362.228 481.923 362.569 484.388 363.362 487.281C364.155 490.175 365.123 492.484 366.264 494.208C367.402 495.918 368.71 497.06 370.19 497.635C371.669 498.209 373.335 498.242 375.186 497.735ZM401.845 500.763L389.568 455.975L404.193 451.966L408.059 462.408L408.533 462.604L417.794 496.391L401.845 500.763ZM424.716 466.661C424.295 465.127 423.687 463.902 422.891 462.985C422.11 462.063 421.176 461.464 420.089 461.186C419.016 460.905 417.829 460.943 416.527 461.3C415.052 461.704 413.818 462.423 412.826 463.457C411.844 464.473 411.2 465.754 410.893 467.3C410.6 468.842 410.71 470.547 411.221 472.413L406.795 473.626L402.881 459.348L405.984 458.497C406.603 456.445 407.487 454.648 408.635 453.105C409.779 451.547 411.168 450.233 412.803 449.162C414.453 448.088 416.348 447.257 418.489 446.67C421.961 445.719 425.114 445.531 427.947 446.108C430.78 446.684 433.19 448.014 435.177 450.098C437.178 452.178 438.658 454.969 439.618 458.47L447.761 488.176L431.812 492.548L424.716 466.661Z" fill="#F6FF8C"/>
<path d="M111.696 29.807C140.34 17.8723 175.246 8.15947 206.39 13.4C213.966 14.6749 222.559 17.8109 223.394 26.493C224.074 33.5596 233.684 25.587 237.302 24.0482C276.331 7.44759 319.819 -1.13302 362.039 6.22871C372.126 7.98763 383.505 11.0443 392.027 17.0943C396.266 20.1032 396.641 23.3751 398.221 27.8512" stroke="#F6FF8C" stroke-width="6" stroke-linecap="round"/>
<path d="M446.284 509C431.416 516.909 417.872 526.969 403.039 534.969C386.291 544.002 368.677 551.359 351.754 560.068C314.118 579.436 278.957 599.337 236.362 604.725C225.341 606.12 209.878 608.197 200.288 600.923C194.154 596.269 184.88 581.908 189.205 573.65C191.508 569.254 200.603 570.037 202.896 573.976C204.81 577.263 203.156 581.449 203.765 584.95C204.13 587.047 205.264 580.961 206.156 579.028C208.317 574.346 211.13 570.179 214.848 566.587C219.377 562.212 227.986 555.204 234.841 556.374C243.176 557.797 235.53 570.204 233.428 573.324C221.428 591.141 202.277 603.74 185.076 616.026C145.738 644.124 48 654.524 16 644.124" stroke="#F6FF8C" stroke-width="6" stroke-linecap="round"/>
<path d="M422.155 101.3C437.341 101.3 450.156 110.76 453.682 125.571C460.214 153.007 448.884 172.583 428.66 190.044C392.964 220.862 335.809 241.113 288.634 243.09C240.6 245.103 192.889 238.727 145.258 245.351C103.428 251.168 44.2859 255.364 27.1554 302.817C22.119 316.769 22.3284 344.952 27.4891 358.858C34.7294 378.366 49.4728 386.4 67.2738 394.806C94.7181 407.765 122.574 410.569 152.598 410.569C181.905 410.569 210.863 410.996 240.008 407.567" stroke="#F6FF8C" stroke-width="6" stroke-linecap="round"/>
</svg>
