<svg width="238" height="120" viewBox="0 0 238 120" fill="none" xmlns="http://www.w3.org/2000/svg">
<path d="M247.686 -8C242.622 1.55438 236.741 10.3005 228.686 17.6477C215.499 29.6751 198.892 39.583 182.739 47.0139C172.475 51.7358 158.855 57.0089 147.235 55.2405C141.601 54.3832 138.497 50.2196 140.663 44.1613C144.802 32.5862 156.643 29.5877 167.457 33.5406C174.012 35.9365 180.104 40.5028 181.032 47.9308C182.043 56.0188 172.248 63.2972 166.897 67.3894C150.989 79.5545 132.005 87.0757 112.978 92.7315C86.7595 100.525 60.022 106.44 32.8769 109.821C24.2498 110.896 15.6055 111.801 7 113.031" stroke="#2B9AD8" stroke-width="13" stroke-linecap="round"/>
</svg>
