<svg width="507" height="53" viewBox="0 0 507 53" fill="none" xmlns="http://www.w3.org/2000/svg">
<path d="M17.9095 3.69629C6.65003 12.1409 -4.912 30.5207 14.0576 38.1801C18.1668 39.8393 24.6315 40.5408 28.915 40.6563C42.8789 41.0328 57.5408 39.6286 71.1943 36.8503C86.5172 33.7322 82.3447 34.1523 93.618 29.4216C97.8396 27.65 98.1352 35.2463 100.909 38.1801C114.822 52.8949 139.366 49.9449 157.358 47.9016C178.56 45.4938 199.363 40.5635 220.594 38.3635C224.428 37.9661 232.2 37.3345 236.185 37.0795C241.283 36.7534 247.523 37.4543 252.418 35.6122C258.262 33.4127 264.476 23.2676 259.113 17.6366C253.536 11.7812 244.82 17.6227 245.081 24.6525C245.462 34.94 256.564 43.0477 265.349 46.1591C273.891 49.1844 283.743 48.2684 292.634 48.2684C303.949 48.2684 315.418 48.6596 326.613 46.7093C350.772 42.5005 374.091 37.328 398.79 36.2541C433.609 34.7403 468.464 35.7829 503.251 33.4111" stroke="#FFA6F1" stroke-width="6" stroke-linecap="round"/>
</svg>
