<svg width="614" height="512" viewBox="0 0 614 512" fill="none" xmlns="http://www.w3.org/2000/svg">
<path d="M0 30.1617C18.6272 10.9866 56.9861 11.2298 78.7786 24.0131C95.4442 33.789 109.473 47.9663 119.417 64.4592C133.519 87.8479 148.618 120.661 141.225 148.714C135.287 171.245 104.613 180.868 85.5997 168.313C63.2979 153.585 88.0368 132.22 104.334 128.923C133.582 123.007 157.125 133.512 181.383 148.714C229.66 178.968 280.607 203.174 329.91 231.528C362.434 250.232 393.025 272.297 424.54 292.629C438.146 301.407 450.795 315.644 465.563 322.219C480.952 329.071 494.164 318.315 503.415 306.752C518.111 288.382 535.848 256.654 529.546 231.912C523.384 207.72 490.683 224.346 481.51 235.851C450.988 274.133 459.554 335.048 476.707 376.788C501.033 435.982 553.851 481.985 598.333 526.467" stroke="#F6FF8C" stroke-width="30" stroke-linecap="round"/>
</svg>
